<?xml version="1.0" encoding="UTF-8"?>
<svg xmlns="http://www.w3.org/2000/svg" width="21" height="21" viewBox="0 0 21 21" fill="none">
  <g id="facebook (2)" clip-path="url(#clip0_549_2587)">
    <g id="Group">
      <g id="Group_2">
        <path id="Vector" d="M10.9766 0.601562C5.46258 0.601562 0.976562 5.08758 0.976562 10.6016C0.976562 16.1151 5.46258 20.6016 10.9766 20.6016C16.4901 20.6016 20.9766 16.1151 20.9766 10.6016C20.9766 5.08758 16.4909 0.601562 10.9766 0.601562ZM13.4635 10.9536H11.8365V16.7524H9.42577C9.42577 16.7524 9.42577 13.5839 9.42577 10.9536H8.27979V8.90415H9.42577V7.57852C9.42577 6.62911 9.87691 5.14559 11.8587 5.14559L13.6451 5.15244V7.14188C13.6451 7.14188 12.5596 7.14188 12.3485 7.14188C12.1374 7.14188 11.8374 7.24742 11.8374 7.70017V8.90455H13.6741L13.4635 10.9536Z" fill="black"></path>
      </g>
    </g>
  </g>
  <defs>
    <clipPath id="clip0_549_2587">
      <rect width="20" height="20" fill="white" transform="translate(0.976562 0.601562)"></rect>
    </clipPath>
  </defs>
</svg>
